<svg width="61" height="61" viewBox="0 0 61 61" fill="none" xmlns="http://www.w3.org/2000/svg">
<g clip-path="url(#clip0_361_2184)">
<path d="M23.7328 0.190723C22.4223 0.536232 21.2309 1.56084 20.6352 2.83565C20.3492 3.43135 20.3135 3.66963 20.3016 4.81338L20.2896 6.1001L13.177 13.2128L6.07617 20.3136H4.80137C3.65762 20.3136 3.44316 20.3493 2.83555 20.6353C2.0373 21.0046 1.08418 21.8624 0.655273 22.5773C0.285937 23.2087 0 24.2929 0 25.0315C0 25.7702 0.38125 26.9855 0.82207 27.6407C1.02461 27.9386 3.63379 30.6192 6.63613 33.6097C12.5693 39.519 12.6289 39.5667 14.142 39.7692C15.81 39.9837 17.2635 39.4595 18.3834 38.2442C19.3127 37.2435 19.5867 36.5048 19.5867 34.944L19.5986 33.7288L20.242 33.0735L20.8973 32.4183L21.0879 32.7399C21.4334 33.2999 22.3865 34.0505 23.018 34.2649C24.0545 34.6105 25.4604 34.3603 26.3896 33.6692C26.616 33.5024 27.1402 34.0743 37.6961 46.2028C43.7842 53.1964 49.0383 59.1415 49.3719 59.4036C52.2193 61.703 56.2463 61.4767 58.8555 58.8556C61.6434 56.0677 61.7148 51.8024 58.9984 48.9788C58.5576 48.5261 54.9834 45.345 51.0518 41.9257C32.8352 26.08 33.4785 26.6519 33.6691 26.3898C34.3959 25.3771 34.6223 24.1022 34.2648 23.0181C34.0504 22.3866 33.2998 21.4335 32.7398 21.088L32.4182 20.8974L33.0734 20.2421L33.7287 19.5987H34.8844C36.4094 19.5987 37.2791 19.289 38.2561 18.3716C39.8287 16.9181 40.2576 14.714 39.3641 12.772C39.09 12.1882 38.2561 11.2946 33.4309 6.46944C29.5111 2.54971 27.6525 0.774513 27.2832 0.583889C26.1037 9.91821e-05 24.9123 -0.130955 23.7328 0.190723ZM25.9131 2.60928C26.2348 2.76416 28.1768 4.63467 31.8344 8.29229C37.0408 13.5345 37.2672 13.7847 37.3863 14.3327C37.7557 16.1437 36.2068 17.621 34.4197 17.1564C33.9432 17.0372 33.3475 16.4772 28.4984 11.6401C25.5318 8.67354 22.9941 6.05244 22.8631 5.81416C22.732 5.54014 22.6367 5.13506 22.6367 4.76572C22.6367 3.03819 24.3762 1.89444 25.9131 2.60928ZM26.7471 13.2247L31.751 18.2286L24.9838 24.9839L18.2285 31.7511L13.2246 26.7472C10.4725 23.995 8.2207 21.6956 8.2207 21.6241C8.2207 21.4692 21.4691 8.2208 21.624 8.2208C21.6955 8.2208 23.9949 10.4726 26.7471 13.2247ZM5.81406 22.8632C6.05234 22.9942 8.67344 25.5319 11.64 28.4985C16.4771 33.3476 17.0371 33.9433 17.1562 34.4198C17.6209 36.2069 16.1436 37.7558 14.3326 37.3864C13.7846 37.2673 13.5344 37.0409 8.29219 31.8345C4.63457 28.1769 2.76406 26.2349 2.60918 25.9132C2.07305 24.7694 2.56152 23.4708 3.75293 22.8394C4.25332 22.5653 5.26602 22.5892 5.81406 22.8632ZM31.7033 23.3397C31.9654 23.6019 32.0488 23.8044 32.0488 24.1499C32.0488 24.5788 31.9059 24.7456 28.3197 28.3198C24.7455 31.906 24.5787 32.0489 24.1498 32.0489C23.4826 32.0489 22.9941 31.5366 22.9941 30.8337V30.3214L26.6637 26.6638L30.3213 22.9942H30.8336C31.2506 22.9942 31.4293 23.0657 31.7033 23.3397ZM35.9447 31.9298C38.1607 33.8599 41.4371 36.7192 43.2361 38.2919L46.4887 41.1394L43.8318 43.7962C42.3664 45.2616 41.1273 46.453 41.0916 46.4411C41.0559 46.4173 38.4586 43.4507 35.3252 39.8526C32.1918 36.2427 29.3324 32.9663 28.975 32.5493L28.3078 31.7987L30.0354 30.0712C30.9766 29.13 31.7867 28.3675 31.8344 28.3794C31.882 28.4032 33.7287 29.9997 35.9447 31.9298ZM49.2646 43.546L50.0986 44.3085L47.1797 47.2274L44.2607 50.1464L43.4982 49.2528L42.7357 48.3474L45.5236 45.5595C47.0605 44.0226 48.3354 42.7716 48.3711 42.7716C48.4068 42.7835 48.8119 43.129 49.2646 43.546ZM54.8047 48.3831C56.282 49.6817 57.6045 50.9208 57.7475 51.1353C58.3789 52.0884 58.5576 52.6603 58.5576 53.8517C58.5576 54.8286 58.51 55.0788 58.2479 55.6388C57.116 58.0454 54.5902 59.1653 52.1836 58.3194C51.2662 57.9978 50.6109 57.4021 48.4902 54.9597C47.3584 53.661 46.2861 52.4458 46.1193 52.2671L45.8215 51.9335L48.8477 48.9073C50.5156 47.2394 51.9334 45.9169 51.993 45.9646C52.0645 46.0003 53.3273 47.0964 54.8047 48.3831Z" fill="#5D5FEF"/>
<path d="M20.7781 12.3787C19.9203 13.0102 15.5121 17.5614 15.4287 17.9069C15.2023 18.8123 15.9767 19.5868 16.8941 19.3604C17.0966 19.3127 18.2046 18.3 19.9917 16.5248C22.7439 13.7727 22.7558 13.7489 22.7558 13.2366C22.7558 12.8315 22.6843 12.6528 22.4103 12.3787C21.9457 11.9141 21.3976 11.9141 20.7781 12.3787Z" fill="#5D5FEF"/>
<path d="M12.9029 20.4564C12.4859 20.5398 12.0332 21.1594 12.0332 21.6479C12.0332 22.2436 12.5693 22.7559 13.1889 22.7559C13.7727 22.7559 14.1182 22.5057 14.2969 21.9934C14.4875 21.4096 14.2135 20.7781 13.6535 20.5518C13.4152 20.4564 13.2127 20.385 13.2008 20.385C13.177 20.3969 13.0459 20.4326 12.9029 20.4564Z" fill="#5D5FEF"/>
<path d="M5.39705 46.87C4.18181 47.2631 3.30017 48.0256 2.75213 49.2051C2.49002 49.7532 2.44236 50.0272 2.44236 50.8731C2.44236 51.7667 2.49002 51.9811 2.79978 52.6245L3.1572 53.3512L2.65681 53.6729C1.48924 54.3997 0.428884 55.9723 0.131033 57.402C-0.0476783 58.236 -0.0357643 59.9516 0.142947 60.3448C0.452712 61.0358 -0.428929 61.0001 16.6797 61.0001C33.7883 61.0001 32.9066 61.0358 33.2164 60.3448C33.3951 59.9516 33.407 58.236 33.2283 57.402C32.9304 55.9723 31.8701 54.3997 30.7025 53.6729L30.2021 53.3512L30.5595 52.6245C30.8693 51.9811 30.917 51.7667 30.917 50.8731C30.917 49.9676 30.8812 49.7651 30.5238 49.0622C30.0711 48.1448 29.4277 47.5133 28.4865 47.0725L27.8193 46.7627L16.8584 46.7389C8.03006 46.727 5.80213 46.7508 5.39705 46.87ZM27.6406 49.3243C28.1767 49.5983 28.5937 50.2774 28.5937 50.885C28.5937 51.4211 28.1648 52.1122 27.6406 52.41C27.1879 52.6602 27.164 52.6602 16.6797 52.6602C6.19529 52.6602 6.17146 52.6602 5.71873 52.41C4.50349 51.7309 4.47967 50.0868 5.67107 49.3719L6.13572 49.086H16.6558C26.9615 49.086 27.1879 49.086 27.6406 49.3243ZM28.975 55.4362C30.0353 55.9604 30.7383 56.9135 30.9289 58.1168L31.0123 58.6172H16.6916C2.94275 58.6172 2.38279 58.6053 2.38279 58.4028C2.38279 57.962 2.75213 56.9731 3.08572 56.5085C3.52654 55.9127 4.05076 55.5196 4.82517 55.2575C5.37322 55.0668 6.24295 55.0549 16.8584 55.0788L28.2959 55.1026L28.975 55.4362Z" fill="#5D5FEF"/>
</g>
<defs>
<clipPath id="clip0_361_2184">
<rect width="61" height="61" fill="white"/>
</clipPath>
</defs>
</svg>
