<svg width="18" height="18" viewBox="0 0 18 18" fill="none" xmlns="http://www.w3.org/2000/svg">
<path d="M14.2481 15C7.8494 15.0091 2.99316 10.0946 3.00001 3.75188C3.00001 3.33767 3.33579 3 3.75001 3H5.72953C6.1012 3 6.41695 3.2731 6.47153 3.64075C6.60233 4.5219 6.85888 5.37973 7.23336 6.18803L7.31043 6.35438C7.4176 6.58568 7.34496 6.86051 7.13751 7.00865C6.52447 7.44644 6.29019 8.32767 6.76777 9.01527C7.36708 9.87813 8.12254 10.6334 8.9852 11.2325C9.67277 11.7099 10.5538 11.4757 10.9916 10.8627C11.1399 10.6552 11.4149 10.5825 11.6463 10.6897L11.8119 10.7664C12.6202 11.1409 13.4781 11.3974 14.3594 11.5282C14.727 11.5828 15 11.8985 15 12.2702V14.25C15 14.6642 14.6634 15 14.2492 15L14.2481 15Z" fill="white"/>
</svg>
