<svg width="18" height="18" viewBox="0 0 18 18" fill="none" xmlns="http://www.w3.org/2000/svg">
<path d="M9 15.7501C8.0527 14.9421 7.17464 14.0562 6.375 13.1018C5.175 11.6686 3.75 9.5341 3.75 7.5001C3.74894 5.37576 5.02819 3.46014 6.9908 2.64715C8.95342 1.83415 11.2125 2.28403 12.714 3.78685C13.7013 4.7698 14.2544 6.10689 14.25 7.5001C14.25 9.5341 12.825 11.6686 11.625 13.1018C10.8254 14.0562 9.9473 14.9421 9 15.7501ZM9 5.2501C8.19615 5.2501 7.45337 5.67895 7.05144 6.3751C6.64952 7.07125 6.64952 7.92895 7.05144 8.6251C7.45337 9.32125 8.19615 9.7501 9 9.7501C10.2426 9.7501 11.25 8.74274 11.25 7.5001C11.25 6.25746 10.2426 5.2501 9 5.2501Z" fill="white"/>
</svg>
