<svg width="61" height="61" viewBox="0 0 61 61" fill="none" xmlns="http://www.w3.org/2000/svg">
<g clip-path="url(#clip0_361_2190)">
<path d="M1.2509 0.166798C0.750513 0.381252 0.142896 1.10801 0.0594971 1.57266C0.0237549 1.78711 0.0118408 13.4748 0.0237549 27.5334L0.0594971 53.101L0.405005 53.5418C0.869653 54.1613 1.53684 54.4473 2.53762 54.4473H3.33586V55.2217C3.33586 56.0676 3.55032 56.7229 3.96731 57.1637C4.39622 57.6164 4.64641 57.7117 5.71868 57.7832L6.73137 57.8428L6.79094 58.7959C6.86243 59.9277 7.11262 60.3686 7.89895 60.7498C8.41125 61 8.45891 61 22.7677 61H37.1122L41.4847 56.6156L45.8691 52.2432V48.9311V45.6309H46.9175C47.7872 45.6309 48.0136 45.5951 48.1685 45.4164C48.4544 45.0947 48.4306 44.4037 48.1208 44.1297C47.8825 43.9152 47.5847 43.9033 42.2114 43.8676L36.5642 43.8318L36.6357 43.5697C36.7667 43.1289 37.3386 42.4975 37.9462 42.1162L38.5181 41.7588H45.0351H51.5521L52.1359 42.1162C52.6363 42.426 53.4941 43.4387 53.4941 43.7246C53.4941 43.7723 53.1486 43.8438 52.7316 43.8676C51.7784 43.9271 51.4687 44.1535 51.4687 44.7969C51.4687 45.5355 51.6831 45.6309 53.3988 45.6309C55.2693 45.6309 55.4361 45.5355 55.4122 44.5467C55.3765 42.7357 54.3042 41.175 52.5529 40.341C51.7784 39.9836 51.7308 39.9717 49.7173 39.9359L47.6562 39.8883V30.0711V20.2539H50.9921C52.8269 20.2539 54.3281 20.2777 54.3281 20.3016C54.3281 20.3254 53.4226 22.8512 52.3027 25.9131C50.0986 31.9773 50.0866 32.0131 50.5036 33.3475C51.4329 36.3379 54.6497 37.851 57.664 36.7072C59.3677 36.052 60.7259 34.2529 60.9523 32.3467C61.0357 31.7152 60.9523 31.477 58.7243 25.3531C57.2232 21.207 56.3296 18.9076 56.1509 18.7289C55.9007 18.4787 55.8173 18.4668 53.5656 18.4668H51.2542L51.1708 17.9783C51.1232 17.7162 50.873 17.0729 50.6228 16.5486C49.7292 14.7854 48.2042 13.6178 46.2027 13.177L45.881 13.1055L45.8452 10.5082L45.8095 7.89902L45.464 7.4582C44.9993 6.83867 44.3322 6.55273 43.3552 6.55273H42.5689L42.5093 5.67109C42.4021 4.09844 41.7468 3.45508 40.1384 3.35977L39.1972 3.3002V2.85938C39.1972 2.10879 38.9708 1.19141 38.7087 0.810158C38.5657 0.607616 38.2322 0.345509 37.9581 0.226368C37.4935 0.0119133 36.7786 0 19.539 0.0119133C4.98 0.0119133 1.53684 0.0357437 1.2509 0.166798ZM37.2909 2.01348C37.3505 2.14453 37.4101 2.49004 37.4101 2.78789V3.33594L21.1116 3.35977L4.82512 3.39551L4.3843 3.66953C4.14602 3.82441 3.82434 4.1461 3.66946 4.38438L3.39543 4.8252V9.97207C3.39543 15.6193 3.37161 15.4049 4.11028 15.5598C4.37239 15.6074 4.56301 15.5598 4.80129 15.3691L5.12297 15.1189V10.258C5.12297 6.64805 5.15872 5.37324 5.26594 5.26602C5.46848 5.06348 40.4005 5.06348 40.6031 5.26602C40.6865 5.34941 40.746 5.67109 40.746 5.98086V6.55273L24.4476 6.57656L8.14915 6.6123L7.66067 6.93399C6.70754 7.56543 6.79094 5.20645 6.79094 32.0369V56.008L5.9927 55.9723L5.18254 55.9365L5.12297 37.3148C5.0634 19.0506 5.0634 18.6813 4.83704 18.5145C4.44387 18.2404 3.86008 18.3 3.58606 18.6574L3.33586 18.9791V35.8256V52.6721L2.59719 52.6363L1.84661 52.6006L1.81086 27.3428C1.79895 13.451 1.81086 2.01348 1.84661 1.93008C1.88235 1.82285 5.53997 1.78711 19.5271 1.78711C36.8382 1.78711 37.1599 1.78711 37.2909 2.01348ZM44.0581 10.7465L44.082 13.0816L43.4029 13.2842C41.2226 13.9156 39.5427 15.5955 38.9947 17.6805L38.7802 18.4668H36.4927C34.2886 18.4668 34.1933 18.4787 33.9073 18.7289C33.5261 19.0863 29.0702 31.2982 29.0702 32.0012C29.0822 34.3721 31.1314 36.6477 33.6333 37.0527C36.588 37.5174 39.5308 35.2537 39.7452 32.3348L39.8048 31.5127L37.8509 26.1514C36.7786 23.1967 35.8613 20.6709 35.8136 20.516L35.7302 20.2539H39.0661H42.414V30.083V39.9121H40.5673C39.0066 39.9121 38.6015 39.9479 37.982 40.1623C36.2068 40.758 34.9677 42.2115 34.6698 44.0463C34.5507 44.785 34.5984 45.0947 34.8843 45.4164C35.0511 45.6189 35.4323 45.6309 39.5784 45.6309H44.082V48.252V50.873H40.9605C39.1734 50.873 37.6364 50.9326 37.3863 50.9922C36.8144 51.159 36.2306 51.6475 36.028 52.1479C35.897 52.4457 35.8613 53.3273 35.8613 55.877V59.2129L22.2554 59.1891L8.63762 59.1533L8.60188 33.8955C8.58997 20.0037 8.60188 8.56621 8.63762 8.48281C8.67336 8.36367 12.2833 8.33984 26.3538 8.36367L44.0224 8.39941L44.0581 10.7465ZM46.9771 15.3096C48.0732 15.8576 49.0144 16.9775 49.3837 18.1928L49.4552 18.4668H45.047C41.5919 18.4668 40.6269 18.4311 40.6269 18.3119C40.6269 18.0617 41.2107 16.9061 41.5323 16.5129C42.0208 15.941 42.9739 15.2738 43.5816 15.0713C43.9509 14.9521 44.499 14.9045 45.2138 14.9283C46.1073 14.9641 46.3933 15.0236 46.9771 15.3096ZM45.8691 30.083V39.9121H45.0351H44.2011V30.083V20.2539H45.0351H45.8691V30.083ZM36.0638 26.485L37.6245 30.7979L36.028 30.8336C35.1464 30.8455 33.7167 30.8455 32.8351 30.8336L31.2505 30.7979L32.8113 26.485C33.6691 24.1021 34.3958 22.1602 34.4316 22.1602C34.4673 22.1602 35.1941 24.1021 36.0638 26.485ZM57.2947 26.6279L58.8077 30.7979L55.6624 30.8336C53.923 30.8455 52.4933 30.8455 52.4695 30.8217C52.4456 30.7979 53.1366 28.8439 54.0064 26.4611C55.0548 23.5898 55.6148 22.1959 55.6863 22.3031C55.7339 22.3984 56.4607 24.3404 57.2947 26.6279ZM37.8152 32.9066C37.3982 34.3006 35.9566 35.3133 34.4316 35.3133C33.5738 35.3133 32.6087 34.9439 32.0368 34.4078C31.6556 34.0623 31.1552 33.2879 31.0361 32.9066L30.9646 32.6445H34.4316H37.8986L37.8152 32.9066ZM59.0937 32.6922C59.0937 32.9424 58.6171 33.7406 58.1882 34.1934C56.8896 35.5754 54.888 35.6945 53.2915 34.4793C52.9103 34.1814 52.1835 33.0854 52.1835 32.7875C52.1835 32.6803 52.9579 32.6445 55.6386 32.6445C57.5448 32.6445 59.0937 32.6684 59.0937 32.6922ZM40.2575 55.2574L37.7079 57.8547L37.6722 55.3527C37.6484 53.4346 37.6841 52.8389 37.7913 52.7555C37.8747 52.7078 39.0423 52.6602 40.3767 52.6602H42.7952L40.2575 55.2574Z" fill="#EF5DA8"/>
<path d="M13.8321 16.3937C13.5462 16.7631 13.5224 16.9061 13.7249 17.335C13.8083 17.5256 14.0109 17.6805 14.2849 17.7639C14.5708 17.8353 17.311 17.8711 22.3745 17.8473L30.0472 17.8115L30.2735 17.5256C30.5714 17.1682 30.5595 16.6201 30.2616 16.3223C30.0234 16.084 29.8685 16.084 22.0528 16.084H14.0704L13.8321 16.3937Z" fill="#EF5DA8"/>
<path d="M13.8203 23.3158C13.5106 23.709 13.5701 24.2571 13.9514 24.5787C14.1897 24.7694 14.6305 24.7813 20.7424 24.7574C27.9028 24.7217 27.5573 24.7574 27.7121 24.0069C27.7598 23.7448 27.7121 23.5541 27.5215 23.3158L27.2713 22.9942H20.6709H14.0705L13.8203 23.3158Z" fill="#EF5DA8"/>
<path d="M13.9276 30.1307C13.725 30.2855 13.6536 30.4762 13.6536 30.7979C13.6536 31.1195 13.725 31.3102 13.9276 31.465C14.1897 31.6795 14.5114 31.6914 19.6583 31.6914C24.8051 31.6914 25.1268 31.6795 25.3889 31.465C25.7344 31.191 25.7583 30.5 25.4366 30.1426C25.2221 29.9043 25.1149 29.9043 19.7178 29.9043C14.5114 29.9043 14.1897 29.9162 13.9276 30.1307Z" fill="#EF5DA8"/>
<path d="M13.9514 37.017C13.5701 37.3387 13.5106 37.8867 13.8203 38.2799L14.0705 38.6016H19.7297C25.2221 38.6016 25.3889 38.5896 25.6153 38.3633C25.7582 38.2203 25.8535 37.9701 25.8535 37.708C25.8535 37.4459 25.7582 37.1957 25.6153 37.0527C25.3889 36.8264 25.2221 36.8145 19.7893 36.8145C14.6424 36.8145 14.1897 36.8264 13.9514 37.017Z" fill="#EF5DA8"/>
<path d="M14.1777 43.8557C13.7965 44.0106 13.7011 44.1655 13.7011 44.6897C13.7011 45.5594 13.2246 45.5117 21.9576 45.5117C28.8916 45.5117 29.7851 45.4879 29.9519 45.3211C30.4166 44.8684 30.2855 44.0582 29.7136 43.8438C29.3086 43.6889 14.5828 43.7008 14.1777 43.8557Z" fill="#EF5DA8"/>
<path d="M13.9036 50.9683C13.5819 51.3257 13.6415 52.0048 14.0227 52.3027C14.3325 52.541 14.3682 52.5529 21.9575 52.5171L29.5706 52.4814L29.7969 52.1955C30.071 51.8619 30.0829 51.3734 29.8327 51.016L29.654 50.7539H21.8741C14.4874 50.7539 14.0823 50.7658 13.9036 50.9683Z" fill="#EF5DA8"/>
</g>
<defs>
<clipPath id="clip0_361_2190">
<rect width="61" height="61" fill="white"/>
</clipPath>
</defs>
</svg>
