<svg width="61" height="61" viewBox="0 0 61 61" fill="none" xmlns="http://www.w3.org/2000/svg">
<g clip-path="url(#clip0_361_2171)">
<path d="M9.94824 0.11908C8.79258 0.405018 7.7084 1.28666 7.18418 2.37084C6.88633 2.97845 6.8625 3.18099 6.81484 4.78939L6.76719 6.52885L5.13496 6.5765C3.6457 6.61224 3.46699 6.64799 2.8832 6.94584C2.04922 7.38666 1.3582 8.1015 0.965039 8.92357L0.655273 9.59076V33.7763V57.9618L0.988867 58.629C1.37012 59.4273 2.27559 60.3089 3.06191 60.6783L3.63379 60.9404L26.0322 60.9761C51.4211 61.0118 48.8 61.1191 50.6348 59.9158C54.9357 57.0802 58.7602 50.9683 59.9992 44.9517C60.3686 43.1765 60.4639 40.2099 60.1898 39.4117C59.892 38.5777 59.2725 38.1607 54.3043 35.48C51.6594 34.0503 49.4672 32.8828 49.4195 32.8828C49.36 32.8828 49.3242 28.0218 49.3242 22.0886C49.3242 15.0712 49.2766 11.223 49.2051 11.08C49.1098 10.8894 42.5094 5.20638 37.4936 0.976894L36.3379 -6.10352e-05L23.3158 0.0118523C16.1674 0.0237694 10.1508 0.0595093 9.94824 0.11908ZM34.6699 5.28978C34.6699 6.88627 34.7295 8.48275 34.7891 8.82826C35.075 10.3533 36.1234 11.7234 37.5055 12.3667L38.1846 12.6884L42.5332 12.748L46.8818 12.8076V22.8035V32.8113L42.0924 35.3966C39.4594 36.8263 37.1123 38.1369 36.874 38.3156C36.1473 38.8755 35.9328 39.4117 35.8852 40.9605C35.7779 44.0343 36.6715 47.7158 38.3156 51.016L38.8398 52.0644H32.99H27.1402L26.7352 52.4695C26.473 52.7316 26.3301 52.9937 26.3301 53.1843C26.3301 53.6013 26.6279 54.1732 26.9139 54.3281C27.0688 54.3995 29.4396 54.4472 33.7049 54.4472H40.2576L41.0797 55.5552C41.5443 56.1628 42.3426 57.0921 42.8787 57.6402L43.8438 58.6171L23.983 58.5933L4.11035 58.5576L3.74102 58.2954C2.91895 57.6997 2.97852 59.737 2.97852 33.7525C2.97852 11.6638 2.99043 10.2818 3.19297 9.88861C3.3002 9.66224 3.57422 9.35248 3.80059 9.20951C4.15801 8.97123 4.34863 8.93549 5.49238 8.93549H6.79102L6.81484 30.1663L6.85059 51.4091L7.18418 52.0882C7.60117 52.946 8.33984 53.6847 9.17383 54.0779L9.8291 54.3876L13.5582 54.4234L17.2873 54.4591L17.6328 54.1017C18.1809 53.5536 18.1094 52.6363 17.4779 52.2788C17.2873 52.1716 16.2389 52.112 13.7369 52.0644C10.4605 52.0048 10.2461 51.9929 9.92441 51.7546C9.7457 51.6236 9.49551 51.3257 9.37637 51.0994C9.18574 50.7181 9.17383 49.3837 9.19766 27.1044L9.2334 3.51459L9.49551 3.14525C10.0674 2.34701 9.26914 2.38275 22.6129 2.38275H34.6699V5.28978ZM41.1869 7.26752L44.7492 10.3056L41.8303 10.3413C39.0543 10.3652 38.8994 10.3533 38.3871 10.115C38.0416 9.93627 37.7437 9.67416 37.5174 9.31673L37.1719 8.76869V6.33822C37.1719 3.95541 37.1719 3.90775 37.3982 4.06263C37.5293 4.15795 39.233 5.59955 41.1869 7.26752ZM52.958 37.4816C55.5791 38.8874 57.7951 40.1384 57.8785 40.2456C58.2955 40.7818 57.8189 44.4036 57.0088 46.8818C55.4361 51.6951 52.1717 56.2105 48.8119 58.2359L48.1566 58.629L47.6801 58.3908C45.7143 57.39 43.2004 54.7212 41.4967 51.8499C39.4832 48.4425 38.4348 45.19 38.2799 41.854L38.2084 40.2814L38.673 40.0074C39.5904 39.4593 47.9541 34.932 48.0732 34.9201C48.1447 34.9201 50.3369 36.0638 52.958 37.4816Z" fill="#A752EA"/>
<path d="M14.69 9.7575C14.0228 10.1745 13.9394 11.068 14.5351 11.5803L14.8925 11.9139H22.6486C27.7359 11.9139 30.4761 11.8663 30.631 11.7948C31.2625 11.4493 31.3578 10.4128 30.7859 9.87664L30.4761 9.5907L22.7796 9.55496C15.3334 9.53113 15.0593 9.53113 14.69 9.7575Z" fill="#A752EA"/>
<path d="M14.4994 15.9053C13.9156 16.489 14.0586 17.4183 14.7734 17.7758C15.1666 17.9783 16.0482 17.9902 28.0338 17.9902C41.7826 17.9902 41.4967 18.0021 41.8064 17.4183C42.0447 16.9656 41.9613 16.2984 41.6158 15.941L41.2941 15.6074H28.0457H14.8092L14.4994 15.9053Z" fill="#A752EA"/>
<path d="M14.6662 21.755C14.5113 21.8622 14.3207 22.1362 14.2254 22.3507C14.0824 22.6962 14.0824 22.8153 14.2254 23.1608C14.5709 23.971 14.4398 23.9591 19.8369 23.9233L24.6859 23.8876L24.9719 23.554C25.3889 23.0655 25.365 22.3745 24.9123 21.9099L24.5668 21.5643H19.7535C15.5002 21.5643 14.9164 21.5882 14.6662 21.755Z" fill="#A752EA"/>
<path d="M31.6794 21.9099C31.2267 22.3745 31.2029 23.0656 31.6199 23.554L31.9058 23.8876L36.5761 23.9234L41.2345 23.9591L41.58 23.6017C42.0804 23.1132 42.0804 22.4103 41.5919 21.9099L41.2464 21.5644H36.6357H32.0249L31.6794 21.9099Z" fill="#A752EA"/>
<path d="M14.6901 27.7596C14.0348 28.1528 13.9514 29.0464 14.4995 29.6063L14.8092 29.9042H28.0458H41.2942L41.6159 29.5706C41.9614 29.2132 42.0448 28.546 41.8184 28.1052C41.4848 27.4975 41.9852 27.5214 28.0338 27.5214C15.3692 27.5214 15.0594 27.5333 14.6901 27.7596Z" fill="#A752EA"/>
<path d="M14.4995 33.8954C13.9514 34.4553 14.0348 35.3489 14.6901 35.7421C15.0118 35.9446 15.2858 35.9803 16.4772 35.9803C18.0618 35.9803 18.4549 35.8493 18.7766 35.2417C18.9315 34.9319 18.9434 34.7889 18.8362 34.4196C18.6217 33.6928 18.3477 33.5975 16.4653 33.5975C14.845 33.5975 14.7973 33.6094 14.4995 33.8954Z" fill="#A752EA"/>
<path d="M22.863 33.9431C22.3865 34.4197 22.3865 35.0035 22.863 35.5277L23.2085 35.9209L28.4626 35.9566C34.2648 35.9923 34.2291 35.9923 34.6222 35.2418C34.7771 34.932 34.789 34.789 34.6818 34.4197C34.4316 33.5738 34.5984 33.5976 28.5937 33.5976H23.2085L22.863 33.9431Z" fill="#A752EA"/>
<path d="M14.6662 39.7453C14.5113 39.8525 14.3207 40.1265 14.2254 40.341C14.0824 40.6865 14.0824 40.8057 14.2254 41.1512C14.5709 41.9851 14.0943 41.9375 22.6605 41.9375H30.3809L30.7621 41.592C31.0838 41.306 31.1553 41.1631 31.1553 40.7461C31.1553 40.3291 31.0838 40.1861 30.7621 39.9002L30.3809 39.5547H22.6605C15.7266 39.5547 14.9164 39.5785 14.6662 39.7453Z" fill="#A752EA"/>
<path d="M21.4572 52.3741C20.5756 53.1128 21.0521 54.4352 22.1959 54.4471C23.3992 54.4471 23.8162 52.7911 22.7559 52.243C22.2555 51.9809 21.8742 52.0167 21.4572 52.3741Z" fill="#A752EA"/>
<path d="M51.2305 42.5927C51.0637 42.688 50.0033 43.7245 48.8715 44.9159L46.7984 47.0604L45.893 46.2264C45.3926 45.7618 44.8564 45.3567 44.7135 45.321C43.9986 45.1423 43.248 45.7022 43.248 46.4052C43.248 46.6434 43.2957 46.9294 43.3672 47.0485C43.4268 47.1677 44.1178 47.8587 44.9041 48.5973C47.001 50.5393 46.6555 50.6346 50.0391 47.1677C51.5164 45.6546 52.7793 44.2964 52.8627 44.1534C53.4465 43.1407 52.267 42.0089 51.2305 42.5927Z" fill="#A752EA"/>
</g>
<defs>
<clipPath id="clip0_361_2171">
<rect width="61" height="61" fill="white"/>
</clipPath>
</defs>
</svg>
